<mxfile host="app.diagrams.net" modified="2023-07-13T09:53:41.671Z" agent="Mozilla/5.0 (Macintosh; Intel Mac OS X 10_15_7) AppleWebKit/537.36 (KHTML, like Gecko) Chrome/113.0.0.0 Safari/537.36" etag="pX-3Ol6S-sAVDQ0JrUpP" version="21.6.2" type="github">
  <diagram name="第 1 页" id="abdpu2UCCHiUgEIuIiay">
    <mxGraphModel dx="1434" dy="796" grid="1" gridSize="10" guides="1" tooltips="1" connect="1" arrows="1" fold="1" page="1" pageScale="1" pageWidth="827" pageHeight="1169" math="0" shadow="0">
      <root>
        <mxCell id="0" />
        <mxCell id="1" parent="0" />
        <mxCell id="UU09C41LknNABcTAqWKx-1" value="" style="rounded=0;whiteSpace=wrap;html=1;" vertex="1" parent="1">
          <mxGeometry x="300" y="420" width="460" height="120" as="geometry" />
        </mxCell>
        <mxCell id="UU09C41LknNABcTAqWKx-3" value="components" style="rounded=0;whiteSpace=wrap;html=1;" vertex="1" parent="1">
          <mxGeometry x="324" y="450" width="180" height="60" as="geometry" />
        </mxCell>
        <mxCell id="UU09C41LknNABcTAqWKx-4" value="services" style="rounded=0;whiteSpace=wrap;html=1;" vertex="1" parent="1">
          <mxGeometry x="540" y="450" width="180" height="60" as="geometry" />
        </mxCell>
        <mxCell id="UU09C41LknNABcTAqWKx-9" value="FengTang" style="rounded=0;whiteSpace=wrap;html=1;" vertex="1" parent="1">
          <mxGeometry x="300" y="290" width="120" height="60" as="geometry" />
        </mxCell>
        <mxCell id="UU09C41LknNABcTAqWKx-10" value="XiaoSong" style="rounded=0;whiteSpace=wrap;html=1;" vertex="1" parent="1">
          <mxGeometry x="470" y="290" width="120" height="60" as="geometry" />
        </mxCell>
        <mxCell id="UU09C41LknNABcTAqWKx-11" value="DaTou" style="rounded=0;whiteSpace=wrap;html=1;" vertex="1" parent="1">
          <mxGeometry x="640" y="290" width="120" height="60" as="geometry" />
        </mxCell>
      </root>
    </mxGraphModel>
  </diagram>
</mxfile>
